<mxfile host="app.diagrams.net" modified="2023-11-28T04:39:05.590Z" agent="Mozilla/5.0 (Macintosh; Intel Mac OS X 10_15_7) AppleWebKit/537.36 (KHTML, like Gecko) Chrome/119.0.0.0 Safari/537.36" version="22.1.4" etag="6uKm5673EW-7Bu-YW_PJ" type="github">
  <diagram name="Page-1" id="_efeYxu9Wn9SiXM45vXm">
    <mxGraphModel>
      <root>
        <mxCell id="0" />
        <mxCell id="1" parent="0" />
      </root>
    </mxGraphModel>
  </diagram>
</mxfile>
